<?xml version="1.0" encoding="utf-8"?>
<!-- Generator: Adobe Illustrator 26.0.3, SVG Export Plug-In . SVG Version: 6.00 Build 0)  -->
<svg version="1.1" id="Layer_1" xmlns="http://www.w3.org/2000/svg" xmlns:xlink="http://www.w3.org/1999/xlink" x="0px" y="0px"
	 viewBox="0 0 291.06 126.85" style="enable-background:new 0 0 291.06 126.85;" xml:space="preserve">
<style type="text/css">
	.st0{fill:#231F20;}
</style>
<g>
	<g>
		<polygon class="st0" points="28.83,122.53 20.94,122.53 20.94,45.53 36.72,34.48 36.72,16.03 63.14,16.03 78.56,5.74 136.92,45.5 
			136.92,122.54 53.28,122.54 53.28,64.94 102.95,64.94 103.39,107.11 95.5,107.2 95.14,72.83 61.17,72.83 61.17,114.65 
			129.03,114.65 129.03,49.67 78.51,15.26 65.53,23.92 44.61,23.92 44.61,38.59 28.83,49.64 		"/>
	</g>
</g>
<g>
	<g>
		<g>
			<path class="st0" d="M165.02,62.77v17.35h-8.38V36.89h12.95c4.3,0,7.68,1.12,10.14,3.36c2.46,2.24,3.7,5.36,3.7,9.36
				c0,2.24-0.52,4.18-1.56,5.82c-1.04,1.64-2.54,2.96-4.5,3.92c2.26,0.75,3.88,2,4.87,3.74c0.99,1.74,1.49,3.92,1.49,6.54v3.15
				c0,1.21,0.14,2.47,0.41,3.8c0.28,1.33,0.77,2.3,1.49,2.91v0.62h-8.68c-0.7-0.63-1.13-1.67-1.32-3.1
				c-0.19-1.43-0.28-2.87-0.28-4.29v-3.03c0-2.2-0.46-3.9-1.37-5.11c-0.91-1.21-2.22-1.82-3.92-1.82H165.02z M165.02,56.23h4.51
				c1.8,0,3.17-0.54,4.11-1.62c0.94-1.08,1.41-2.61,1.41-4.59c0-2.02-0.47-3.62-1.4-4.81c-0.93-1.19-2.29-1.78-4.07-1.78h-4.57
				V56.23z"/>
		</g>
		<g>
			<polygon class="st0" points="211.81,61.02 198.59,61.02 198.59,73.58 214.43,73.58 214.43,80.11 190.21,80.11 190.21,36.86 
				214.37,36.86 214.37,43.43 198.59,43.43 198.59,54.48 211.81,54.48 			"/>
		</g>
		<g>
			<path class="st0" d="M248.09,66.69l0.06,0.18c0.08,4.63-1.11,8.1-3.55,10.41c-2.45,2.3-5.94,3.46-10.47,3.46
				c-4.65,0-8.35-1.37-11.08-4.11c-2.73-2.74-4.1-6.64-4.1-11.69V52.1c0-5.03,1.32-8.93,3.97-11.71c2.65-2.77,6.22-4.16,10.71-4.16
				c4.74,0,8.37,1.15,10.9,3.45c2.54,2.29,3.76,5.77,3.68,10.43l-0.06,0.17h-8.14c0-2.77-0.49-4.71-1.47-5.82
				c-0.98-1.11-2.62-1.67-4.92-1.67c-2.1,0-3.67,0.76-4.72,2.27c-1.05,1.52-1.58,3.84-1.58,6.97v12.89c0,3.15,0.56,5.48,1.69,7
				c1.13,1.52,2.83,2.27,5.11,2.27c2.08,0,3.57-0.55,4.49-1.65c0.91-1.1,1.37-3.06,1.37-5.87H248.09z"/>
		</g>
		<g>
			<path class="st0" d="M272.47,68.89c0-1.72-0.44-3.08-1.32-4.09c-0.88-1-2.46-1.98-4.74-2.93c-4.44-1.56-7.77-3.33-10.01-5.32
				c-2.24-1.98-3.36-4.75-3.36-8.32c0-3.54,1.28-6.43,3.83-8.66c2.55-2.23,5.81-3.34,9.77-3.34c4.2,0,7.57,1.19,10.13,3.57
				c2.55,2.37,3.79,5.56,3.71,9.56l-0.06,0.18h-8.14c0-2.24-0.5-3.94-1.5-5.1c-1-1.16-2.43-1.74-4.29-1.74
				c-1.6,0-2.85,0.53-3.74,1.59c-0.89,1.06-1.34,2.38-1.34,3.97c0,1.47,0.51,2.67,1.52,3.62c1.01,0.95,2.74,1.99,5.2,3.12
				c4.18,1.39,7.34,3.14,9.49,5.26c2.15,2.12,3.22,4.97,3.22,8.55c0,3.7-1.26,6.61-3.77,8.74c-2.52,2.11-5.85,3.17-10.01,3.17
				c-4.1,0-7.6-1.14-10.52-3.43c-2.91-2.29-4.32-5.77-4.22-10.44l0.06-0.18h8.17c0,2.72,0.55,4.66,1.65,5.85
				c1.1,1.19,2.72,1.78,4.85,1.78c1.8,0,3.16-0.49,4.06-1.49C272.03,71.85,272.47,70.53,272.47,68.89"/>
		</g>
	</g>
	<g>
		<g>
			<polygon class="st0" points="176.39,96.08 176.39,122.67 173.72,122.67 173.72,110.23 159.31,110.23 159.31,122.67 
				156.64,122.67 156.64,96.08 159.31,96.08 159.31,108.02 173.72,108.02 173.72,96.08 			"/>
		</g>
		<g>
			<path class="st0" d="M205.87,102.34c-1.14-2.07-2.71-3.68-4.72-4.83c-2.01-1.16-4.25-1.73-6.73-1.73c-2.46,0-4.69,0.57-6.69,1.73
				c-2.01,1.15-3.58,2.76-4.74,4.83c-1.15,2.07-1.73,4.41-1.73,7.02c0,2.61,0.58,4.95,1.73,7.02c1.16,2.07,2.73,3.68,4.74,4.83
				c2,1.15,4.23,1.73,6.69,1.73c2.49,0,4.73-0.58,6.73-1.73c2-1.15,3.57-2.76,4.72-4.83s1.71-4.41,1.71-7.02
				C207.58,106.74,207.01,104.4,205.87,102.34 M203.47,115.31c-0.91,1.71-2.16,3.02-3.73,3.94c-1.58,0.91-3.35,1.37-5.33,1.37
				c-1.98,0-3.75-0.46-5.33-1.37c-1.57-0.91-2.81-2.23-3.73-3.94c-0.91-1.71-1.37-3.7-1.37-5.95c0-2.25,0.46-4.23,1.37-5.93
				c0.91-1.7,2.16-3.01,3.73-3.92c1.57-0.91,3.35-1.37,5.33-1.37c1.98,0,3.75,0.45,5.33,1.37c1.57,0.91,2.81,2.22,3.73,3.92
				c0.91,1.7,1.37,3.68,1.37,5.93C204.84,111.61,204.39,113.6,203.47,115.31"/>
		</g>
		<g>
			<polygon class="st0" points="238.43,96.42 238.43,122.67 235.77,122.67 235.77,101.71 226.41,122.67 224.47,122.67 
				215.11,101.78 215.11,122.67 212.45,122.67 212.45,96.42 215.26,96.42 225.42,119.17 235.58,96.42 			"/>
		</g>
		<g>
			<polygon class="st0" points="247.14,98.25 247.14,108.17 257.22,108.17 257.22,110.38 247.14,110.38 247.14,120.46 
				258.36,120.46 258.36,122.67 244.48,122.67 244.48,96.04 258.36,96.04 258.36,98.25 			"/>
		</g>
		<g>
			<path class="st0" d="M267.06,122.02c-1.33-0.61-2.38-1.46-3.14-2.55c-0.76-1.09-1.17-2.31-1.22-3.65h2.81
				c0.13,1.3,0.7,2.43,1.71,3.41c1.02,0.97,2.5,1.47,4.45,1.47c1.8,0,3.23-0.46,4.28-1.39c1.05-0.93,1.58-2.1,1.58-3.52
				c0-1.14-0.29-2.06-0.87-2.76c-0.59-0.7-1.31-1.22-2.17-1.56c-0.86-0.34-2.05-0.72-3.58-1.12c-1.78-0.48-3.18-0.95-4.22-1.41
				c-1.04-0.46-1.93-1.17-2.66-2.13c-0.74-0.97-1.1-2.27-1.1-3.92c0-1.37,0.35-2.59,1.06-3.67c0.71-1.08,1.71-1.92,3.01-2.53
				c1.29-0.61,2.78-0.91,4.45-0.91c2.46,0,4.44,0.6,5.95,1.81c1.51,1.2,2.38,2.76,2.61,4.66h-2.89c-0.18-1.09-0.77-2.06-1.79-2.91
				c-1.01-0.85-2.38-1.27-4.11-1.27c-1.6,0-2.93,0.43-4,1.27c-1.07,0.85-1.6,2.01-1.6,3.48c0,1.12,0.29,2.02,0.87,2.7
				c0.59,0.69,1.31,1.2,2.19,1.56c0.88,0.36,2.06,0.74,3.56,1.14c1.73,0.48,3.12,0.96,4.18,1.43c1.07,0.47,1.97,1.19,2.7,2.15
				c0.74,0.96,1.1,2.26,1.1,3.88c0,1.24-0.33,2.42-0.99,3.54c-0.66,1.12-1.64,2.02-2.93,2.7c-1.29,0.69-2.84,1.03-4.64,1.03
				C269.93,122.94,268.39,122.63,267.06,122.02"/>
		</g>
	</g>
	<g>
		<path class="st0" d="M280.24,88.56H156.64c-0.34,0-0.61-0.28-0.61-0.61c0-0.34,0.27-0.61,0.61-0.61h123.59
			c0.34,0,0.61,0.28,0.61,0.61C280.85,88.28,280.58,88.56,280.24,88.56z"/>
	</g>
</g>
</svg>
