<svg id="Layer_1" data-name="Layer 1" xmlns="http://www.w3.org/2000/svg" viewBox="0 0 825.27 326.3"><defs><style>.cls-1{fill:#231f20;}</style></defs><polygon class="cls-1" points="53.38 290.25 34.91 290.25 34.91 109.05 71.85 83.19 71.85 39.97 133.71 39.97 169.8 15.91 306.43 108.97 306.43 289.32 110.64 289.32 110.64 154.49 226.91 154.49 227.93 253.21 209.46 253.4 208.63 172.96 129.11 172.96 129.11 270.85 287.96 270.85 287.96 118.74 169.69 38.18 139.3 58.45 90.32 58.45 90.32 92.81 53.38 118.66 53.38 290.25"/><path class="cls-1" d="M390.28,137.27v36.19H372.79V83.29h27q13.44,0,21.16,7t7.72,19.52A22.21,22.21,0,0,1,425.45,122a22.65,22.65,0,0,1-9.39,8.18c4.71,1.57,8.09,4.19,10.16,7.82s3.1,8.17,3.1,13.63v6.57a38.77,38.77,0,0,0,.87,7.93,10.55,10.55,0,0,0,3.1,6.07v1.3h-18.1c-1.45-1.31-2.37-3.48-2.76-6.47a67.52,67.52,0,0,1-.59-9v-6.32q0-6.87-2.85-10.65a9.64,9.64,0,0,0-8.18-3.79Zm0-13.64h9.41q5.64,0,8.59-3.37t2.94-9.58q0-6.32-2.91-10t-8.49-3.72h-9.54Z"/><polygon class="cls-1" points="487.89 133.62 460.3 133.62 460.3 159.83 493.34 159.83 493.34 173.46 442.83 173.46 442.83 83.23 493.21 83.23 493.21 96.92 460.3 96.92 460.3 119.98 487.89 119.98 487.89 133.62"/><path class="cls-1" d="M563.56,145.45l.13.38q.24,14.49-7.41,21.72t-21.85,7.21q-14.56,0-23.11-8.58t-8.56-24.38V115q0-15.73,8.27-24.42t22.34-8.67q14.82,0,22.75,7.19t7.69,21.75l-.12.37h-17q0-8.67-3.08-12.14t-10.26-3.48c-4.37,0-7.66,1.59-9.84,4.74s-3.29,8-3.29,14.54v26.9q0,9.85,3.53,14.59c2.36,3.17,5.91,4.74,10.66,4.74q6.51,0,9.36-3.43t2.86-12.25Z"/><path class="cls-1" d="M614.44,150q0-5.39-2.76-8.52t-9.88-6.11q-13.89-4.89-20.88-11.09t-7-17.36a22.86,22.86,0,0,1,8-18.06q8-7,20.39-7,13.13,0,21.13,7.44t7.75,19.95l-.13.37h-17q0-7-3.13-10.63t-9-3.62a9.69,9.69,0,0,0-7.81,3.31,12.42,12.42,0,0,0-2.79,8.28,9.92,9.92,0,0,0,3.17,7.56q3.16,3,10.84,6.51,13.08,4.34,19.8,11t6.73,17.85q0,11.58-7.87,18.22t-20.89,6.62q-12.82,0-21.94-7.15t-8.8-21.78l.13-.38h17c0,5.67,1.15,9.73,3.44,12.21s5.67,3.72,10.13,3.72q5.64,0,8.47-3.1a11.75,11.75,0,0,0,2.81-8.24"/><polygon class="cls-1" points="441.06 197.39 441.06 289.32 431.85 289.32 431.85 246.31 382 246.31 382 289.32 372.79 289.32 372.79 197.39 382 197.39 382 238.69 431.85 238.69 431.85 197.39 441.06 197.39"/><path class="cls-1" d="M543,219a42.73,42.73,0,0,0-16.31-16.7,48,48,0,0,0-46.42,0A43.11,43.11,0,0,0,463.87,219a52.24,52.24,0,0,0,0,48.54,43.11,43.11,0,0,0,16.38,16.7,48,48,0,0,0,46.42,0A42.73,42.73,0,0,0,543,267.56,52.71,52.71,0,0,0,543,219m-8.29,44.85a33.62,33.62,0,0,1-12.88,13.62,38.21,38.21,0,0,1-36.83,0,33.71,33.71,0,0,1-12.89-13.62,47,47,0,0,1,0-41.1A33.84,33.84,0,0,1,485,209.22a38.21,38.21,0,0,1,36.83,0,33.75,33.75,0,0,1,12.88,13.55,46.92,46.92,0,0,1,0,41.1"/><polygon class="cls-1" points="655.57 198.57 655.57 289.32 646.36 289.32 646.36 216.86 614 289.32 607.3 289.32 574.94 217.12 574.94 289.32 565.74 289.32 565.74 198.57 575.46 198.57 610.58 277.22 645.7 198.57 655.57 198.57"/><polygon class="cls-1" points="685.68 204.88 685.68 239.21 720.54 239.21 720.54 246.84 685.68 246.84 685.68 281.69 724.48 281.69 724.48 289.32 676.48 289.32 676.48 197.26 724.48 197.26 724.48 204.88 685.68 204.88"/><path class="cls-1" d="M754.53,287.08a26,26,0,0,1-10.85-8.81,23.07,23.07,0,0,1-4.2-12.62h9.73a18.48,18.48,0,0,0,5.91,11.77q5.26,5.06,15.39,5.07,9.33,0,14.8-4.81a15.47,15.47,0,0,0,5.45-12.16c0-3.95-1-7.12-3-9.54a18.53,18.53,0,0,0-7.5-5.39,115.63,115.63,0,0,0-12.36-3.88,107.1,107.1,0,0,1-14.6-4.87,23.25,23.25,0,0,1-9.2-7.36c-2.55-3.34-3.81-7.85-3.81-13.55a22.57,22.57,0,0,1,3.67-12.69,24.61,24.61,0,0,1,10.4-8.74,35.48,35.48,0,0,1,15.39-3.17q12.75,0,20.58,6.25a23.53,23.53,0,0,1,9,16.12h-10c-.61-3.77-2.68-7.12-6.18-10.07s-8.24-4.4-14.2-4.4q-8.3,0-13.82,4.4a14.6,14.6,0,0,0-5.52,12,13.9,13.9,0,0,0,3,9.33,19.35,19.35,0,0,0,7.57,5.4,109.3,109.3,0,0,0,12.29,3.94A112.07,112.07,0,0,1,787,244.27a23.67,23.67,0,0,1,9.34,7.43q3.81,5,3.82,13.42a23.55,23.55,0,0,1-3.43,12.23,24.89,24.89,0,0,1-10.12,9.34,33.87,33.87,0,0,1-16,3.56,38,38,0,0,1-16-3.17"/></svg>