<svg width="23" height="23" viewBox="0 0 23 23" fill="none" xmlns="http://www.w3.org/2000/svg">
<g id="Group 14">
<rect id="Rectangle 23" width="10.3639" height="9.32748" fill="#EDEDED"/>
<rect id="Rectangle 24" width="10.0678" height="3.40527" transform="matrix(1 0 0 -1 12.2886 3.40527)" fill="#EDEDED"/>
<rect id="Rectangle 25" width="10.0678" height="1.3325" transform="matrix(1 0 0 -1 12.2886 6.36646)" fill="#EDEDED"/>
<rect id="Rectangle 29" width="10.3639" height="1.3325" transform="matrix(1 0 0 -1 0 12.1405)" fill="#EDEDED"/>
<rect id="Rectangle 26" width="10.0678" height="1.3325" transform="matrix(1 0 0 -1 12.2886 9.32751)" fill="#EDEDED"/>
<rect id="Rectangle 30" width="10.3639" height="1.3325" transform="matrix(1 0 0 -1 0 15.1017)" fill="#EDEDED"/>
<rect id="Rectangle 27" width="10.0678" height="1.3325" transform="matrix(1 0 0 -1 12.2886 12.2887)" fill="#EDEDED"/>
<rect id="Rectangle 31" width="10.3639" height="1.3325" transform="matrix(1 0 0 -1 0 18.0627)" fill="#EDEDED"/>
<rect id="Rectangle 32" width="10.3639" height="1.3325" transform="matrix(1 0 0 -1 0 20.876)" fill="#EDEDED"/>
<rect id="Rectangle 28" width="10.0678" height="8.29109" transform="matrix(1 0 0 -1 12.2886 22.2084)" fill="#EDEDED"/>
</g>
</svg>
